<?xml version="1.0" standalone="no"?>
<!DOCTYPE svg PUBLIC "-//W3C//DTD SVG 20010904//EN"
 "http://www.w3.org/TR/2001/REC-SVG-20010904/DTD/svg10.dtd">
<svg version="1.0" xmlns="http://www.w3.org/2000/svg"
 width="526.000000pt" height="526.000000pt" viewBox="0 0 526.000000 526.000000"
 preserveAspectRatio="xMidYMid meet">
<metadata>
Created by potrace 1.11, written by Peter Selinger 2001-2013
</metadata>
<g transform="translate(0.000000,526.000000) scale(0.100000,-0.100000)"
fill="#000000" stroke="none">
<path d="M0 2630 l0 -2630 2630 0 2630 0 0 2630 0 2630 -2630 0 -2630 0 0
-2630z m2660 105 l0 -1635 -30 0 -30 0 0 760 0 760 -830 0 -830 0 0 -34 c0
-80 34 -290 65 -396 92 -320 258 -582 514 -811 68 -62 72 -67 60 -87 -8 -12
-17 -22 -21 -22 -14 0 -166 139 -229 210 -143 160 -265 363 -343 573 -114 306
-136 666 -62 992 73 317 258 643 491 864 l77 73 21 -21 21 -20 -115 -118
c-227 -234 -383 -527 -443 -828 -18 -91 -36 -234 -36 -282 l0 -33 830 0 830 0
0 845 0 845 30 0 30 0 0 -1635z m1200 1137 c467 -477 622 -1176 400 -1807 -44
-123 -147 -320 -228 -435 -100 -142 -292 -330 -432 -423 -216 -143 -459 -241
-700 -283 -161 -28 -447 -26 -605 4 -209 40 -446 132 -613 238 -52 34 -52 34
-36 59 16 25 17 25 43 8 392 -260 930 -341 1381 -207 301 89 531 226 742 442
123 126 189 213 273 362 361 638 257 1454 -253 1982 l-105 108 -438 0 -439 0
0 30 0 30 452 0 452 0 106 -108z"/>
</g>
</svg>
